<?xml version="1.0" encoding="utf-8"?>
<svg fill="#dddddd" width="800px" height="800px" viewBox="0 0 512 512" id="icons" data-darkreader-inline-fill="" style="--darkreader-inline-fill: #000000; --darkreader-inline-stroke: #e8e6e3;" stroke="#aaaaaa" data-darkreader-inline-stroke="" xmlns="http://www.w3.org/2000/svg">
  <g id="SVGRepo_bgCarrier" stroke-width="0"/>
  <g id="SVGRepo_tracerCarrier" stroke-linecap="round" stroke-linejoin="round"/>
  <g id="SVGRepo_iconCarrier">
    <path d="M412.19,118.66a109.27,109.27,0,0,1-9.45-5.5,132.87,132.87,0,0,1-24.27-20.62c-18.1-20.71-24.86-41.72-27.35-56.43h.1C349.14,23.9,350,16,350.13,16H267.69V334.78c0,4.28,0,8.51-.18,12.69,0,.52-.05,1-.08,1.56,0,.23,0,.47-.05.71,0,.06,0,.12,0,.18a70,70,0,0,1-35.22,55.56,68.8,68.8,0,0,1-34.11,9c-38.41,0-69.54-31.32-69.54-70s31.13-70,69.54-70a68.9,68.9,0,0,1,21.41,3.39l.1-83.94a153.14,153.14,0,0,0-118,34.52,161.79,161.79,0,0,0-35.3,43.53c-3.48,6-16.61,30.11-18.2,69.24-1,22.21,5.67,45.22,8.85,54.73v.2c2,5.6,9.75,24.71,22.38,40.82A167.53,167.53,0,0,0,115,470.66v-.2l.2.2C155.11,497.78,199.36,496,199.36,496c7.66-.31,33.32,0,62.46-13.81,32.32-15.31,50.72-38.12,50.72-38.12a158.46,158.46,0,0,0,27.64-45.93c7.46-19.61,9.95-43.13,9.95-52.53V176.49c1,.6,14.32,9.41,14.32,9.41s19.19,12.3,49.13,20.31c21.48,5.7,50.42,6.9,50.42,6.9V131.27C453.86,132.37,433.27,129.17,412.19,118.66Z" style=""/>
  </g>
  <g id="g-1" stroke-width="0" transform="matrix(10.538838, 0, 0, 10.538838, 251.352478, 255.140015)" style=""/>
  <g id="g-2" stroke-linecap="round" stroke-linejoin="round" transform="matrix(10.538838, 0, 0, 10.538838, 251.352478, 255.140015)" style=""/>
  <g id="g-3" transform="matrix(10.538838, 0, 0, 10.538838, 251.352478, 255.140015)" style="">
    <path fill-rule="evenodd" clip-rule="evenodd" d="M12 1.25C12.4142 1.25 12.75 1.58579 12.75 2V12.9726L14.4306 11.0119C14.7001 10.6974 15.1736 10.661 15.4881 10.9306C15.8026 11.2001 15.839 11.6736 15.5694 11.9881L12.5694 15.4881C12.427 15.6543 12.2189 15.75 12 15.75C11.7811 15.75 11.573 15.6543 11.4306 15.4881L8.43056 11.9881C8.16099 11.6736 8.19741 11.2001 8.51191 10.9306C8.8264 10.661 9.29988 10.6974 9.56944 11.0119L11.25 12.9726V2C11.25 1.58579 11.5858 1.25 12 1.25ZM6.99583 8.25196C7.41003 8.24966 7.74768 8.58357 7.74999 8.99778C7.7523 9.41199 7.41838 9.74964 7.00418 9.75194C5.91068 9.75803 5.1356 9.78643 4.54735 9.89448C3.98054 9.99859 3.65246 10.1658 3.40901 10.4092C3.13225 10.686 2.9518 11.0746 2.85315 11.8083C2.75159 12.5637 2.75 13.5648 2.75 15.0002V16.0002C2.75 17.4356 2.75159 18.4367 2.85315 19.1921C2.9518 19.9259 3.13225 20.3144 3.40901 20.5912C3.68577 20.868 4.07435 21.0484 4.80812 21.1471C5.56347 21.2486 6.56458 21.2502 8 21.2502H16C17.4354 21.2502 18.4365 21.2486 19.1919 21.1471C19.9257 21.0484 20.3142 20.868 20.591 20.5912C20.8678 20.3144 21.0482 19.9259 21.1469 19.1921C21.2484 18.4367 21.25 17.4356 21.25 16.0002V15.0002C21.25 13.5648 21.2484 12.5637 21.1469 11.8083C21.0482 11.0746 20.8678 10.686 20.591 10.4092C20.3475 10.1658 20.0195 9.99859 19.4527 9.89448C18.8644 9.78643 18.0893 9.75803 16.9958 9.75194C16.5816 9.74964 16.2477 9.41199 16.25 8.99778C16.2523 8.58357 16.59 8.24966 17.0042 8.25196C18.0857 8.25799 18.9871 8.28387 19.7236 8.41916C20.4816 8.55839 21.1267 8.82364 21.6517 9.34857C22.2536 9.95048 22.5125 10.7084 22.6335 11.6085C22.75 12.4754 22.75 13.5778 22.75 14.9453V16.0551C22.75 17.4227 22.75 18.525 22.6335 19.392C22.5125 20.2921 22.2536 21.0499 21.6517 21.6519C21.0497 22.2538 20.2919 22.5127 19.3918 22.6337C18.5248 22.7503 17.4225 22.7502 16.0549 22.7502H7.94513C6.57754 22.7502 5.47522 22.7503 4.60825 22.6337C3.70814 22.5127 2.95027 22.2538 2.34835 21.6519C1.74643 21.0499 1.48754 20.2921 1.36652 19.392C1.24996 18.525 1.24998 17.4227 1.25 16.0551V14.9453C1.24998 13.5778 1.24996 12.4754 1.36652 11.6085C1.48754 10.7084 1.74643 9.95048 2.34835 9.34857C2.87328 8.82363 3.51835 8.55839 4.27635 8.41916C5.01291 8.28387 5.9143 8.25798 6.99583 8.25196Z" style="fill:#cc5c06;stroke:#cc5c06;stroke-width:0.4;"/>
  </g>
</svg>